<?xml version="1.0" encoding="UTF-8"?>
<svg width="64px" height="40px" viewBox="0 0 64 40" version="1.1" xmlns="http://www.w3.org/2000/svg" xmlns:xlink="http://www.w3.org/1999/xlink">
    <!-- Generator: Sketch 51.1 (57501) - http://www.bohemiancoding.com/sketch -->
    <title>icon-tripadvisor</title>
    <desc>Created with Sketch.</desc>
    <defs></defs>
    <g id="Page-1" stroke="none" stroke-width="1" fill="none" fill-rule="evenodd">
        <g id="Artboard" transform="translate(0.000000, -1.000000)" fill="#E2C044" fill-rule="nonzero">
            <g id="icon-tripadvisor" transform="translate(0.000000, 1.000000)">
                <path d="M59.2652743,12.6420987 L63.9750146,7.97001874 L54.4306071,7.97001874 C49.08374,3.62273579 40.2014445,0 31.9687683,0 C23.7235995,0 14.91626,3.62273579 9.56939293,7.97001874 L0,7.97001874 L4.70974039,12.6420987 C1.79894593,15.5402873 0,19.5502811 0,23.9850094 C0,32.8294816 7.17079836,40 16.0156159,40 C20.0757369,40 23.7860629,38.4884447 26.6094085,35.9900062 L32.0312317,39.9750156 L37.3905915,36.0774516 L37.328128,35.9275453 C40.1639664,38.4509681 43.8867851,39.9875078 47.9843841,39.9875078 C56.8292016,39.9875078 64,32.8169894 64,23.9725172 C63.9875073,19.5502811 62.1760687,15.5402873 59.2652743,12.6420987 Z M45.9730627,8.09494066 C38.3900059,9.04434728 32.4434901,15.2904435 31.9937537,23.0231106 C31.5315245,15.2779513 25.5725161,9.0193629 17.9644739,8.09494066 C21.787234,5.34665834 26.6593793,3.99750156 31.9687683,3.99750156 C37.2781573,3.99750156 42.1503026,5.34665834 45.9730627,8.09494066 Z M16.0156159,36.0024984 C9.36951005,36.0024984 3.99765762,30.6183635 3.99765762,23.9850094 C3.99765762,17.3516552 9.38200273,11.9675203 16.0156159,11.9675203 C22.649229,11.9675203 28.0335741,17.3516552 28.0335741,23.9850094 C28.0210814,30.6183635 22.649229,36.0024984 16.0156159,36.0024984 Z M47.9968768,36.0024984 C41.3632637,36.0024984 35.9789186,30.6183635 35.9789186,23.9850094 C35.9789186,17.3516552 41.3632637,11.9675203 47.9968768,11.9675203 C54.6304899,11.9675203 60.0148351,17.3516552 60.0148351,23.9850094 C60.0023424,30.6183635 54.6304899,36.0024984 47.9968768,36.0024984 Z" id="Shape"></path>
                <path d="M16.0109062,16 C12.134159,16 9,19.3580343 9,23.5 C9,27.6419657 12.134159,31 15.9999858,31 C19.8658126,31 22.9999715,27.6419657 22.9999715,23.5 C23.010892,19.3580343 19.876733,16 16.0109062,16 Z M16.0109062,28.8705148 C13.2480413,28.8705148 10.9984359,26.4719189 10.9984359,23.5 C10.9984359,20.5280811 13.2371209,18.1294852 16.0109062,18.1294852 C18.7846915,18.1294852 21.0124561,20.5397816 21.0124561,23.5 C21.0124561,26.4602184 18.7737711,28.8705148 16.0109062,28.8705148 Z" id="Shape"></path>
                <circle id="Oval" cx="16" cy="26" r="4"></circle>
                <path d="M47,16 C43.1341654,16 40,19.3580343 40,23.5 C40,27.6419657 43.1341654,31 47,31 C50.8658346,31 54,27.6419657 54,23.5 C54,19.3580343 50.8658346,16 47,16 Z M47,28.8705148 C44.2371295,28.8705148 41.9875195,26.4719189 41.9875195,23.5 C41.9875195,20.5280811 44.226209,18.1294852 47,18.1294852 C49.773791,18.1294852 52.0015601,20.5397816 52.0015601,23.5 C52.0015601,26.4602184 49.7628705,28.8705148 47,28.8705148 Z" id="Shape"></path>
                <circle id="Oval" cx="49" cy="26" r="4"></circle>
            </g>
        </g>
    </g>
</svg>